<?xml version="1.0" encoding="utf-8"?>
<!-- Generator: Adobe Illustrator 25.4.1, SVG Export Plug-In . SVG Version: 6.00 Build 0)  -->
<svg version="1.1" id="Layer_1" xmlns="http://www.w3.org/2000/svg" xmlns:xlink="http://www.w3.org/1999/xlink" x="0px" y="0px"
	 viewBox="0 0 822 189" style="enable-background:new 0 0 822 189;" xml:space="preserve">
<style type="text/css">
	.st0{fill:#848688;}
	.st1{font-family:'Nunito-Light';}
	.st2{font-size:84.6595px;}
	.st3{font-family:'Nunito-SemiBold';}
	.st4{font-size:84.5849px;}
	.st5{fill:#009CD3;}
	.st6{fill:#DBEFF8;stroke:#A3D9EA;stroke-width:6;stroke-miterlimit:1.1061;}
	.st7{fill:#33CCFF;stroke:#A3D9EA;stroke-width:6;stroke-miterlimit:2;}
	.st8{fill:#00B4D5;stroke:#A3D9EA;stroke-width:6;stroke-miterlimit:2;}
	.st9{fill:#009CD3;stroke:#A3D9EA;stroke-width:6;stroke-miterlimit:1.1061;}
</style>
<text transform="matrix(1 0 0 1 223.8223 82.9922)" class="st0 st1 st2">easy</text>
<text transform="matrix(1 0 0 1 220.2705 154.75)" class="st0 st3 st4">crystallography</text>
<g>
	<circle class="st5" cx="94" cy="94" r="94.5"/>
	<g>
		<circle class="st6" cx="94" cy="115" r="10"/>
		<polygon class="st7" points="49,48 94,73 94,165 49,140 		"/>
		<polygon class="st8" points="94,73 139,48 139,140 94,165 		"/>
		<polygon class="st9" points="49,48 94,73 139,48 94,23 		"/>
		<g>
			<circle class="st6" cx="94" cy="73" r="10"/>
			<circle class="st6" cx="94" cy="165" r="10"/>
		</g>
		<g>
			<circle class="st6" cx="49" cy="48" r="10"/>
			<circle class="st6" cx="49" cy="140" r="10"/>
		</g>
		<g>
			<circle class="st6" cx="139" cy="48" r="10"/>
			<circle class="st6" cx="139" cy="140" r="10"/>
		</g>
		<circle class="st6" cx="94" cy="23" r="10"/>
	</g>
</g>
<g>
	<circle class="st5" cx="94.5" cy="94.5" r="94.5"/>
	<g>
		<circle class="st6" cx="94.5" cy="115.5" r="10"/>
		<polygon class="st7" points="49.5,48.5 94.5,73.5 94.5,165.5 49.5,140.5 		"/>
		<polygon class="st8" points="94.5,73.5 139.5,48.5 139.5,140.5 94.5,165.5 		"/>
		<polygon class="st9" points="49.5,48.5 94.5,73.5 139.5,48.5 94.5,23.5 		"/>
		<g>
			<circle class="st6" cx="94.5" cy="73.5" r="10"/>
			<circle class="st6" cx="94.5" cy="165.5" r="10"/>
		</g>
		<g>
			<circle class="st6" cx="49.5" cy="48.5" r="10"/>
			<circle class="st6" cx="49.5" cy="140.5" r="10"/>
		</g>
		<g>
			<circle class="st6" cx="139.5" cy="48.5" r="10"/>
			<circle class="st6" cx="139.5" cy="140.5" r="10"/>
		</g>
		<circle class="st6" cx="94.5" cy="23.5" r="10"/>
	</g>
</g>
</svg>
